HIERARCHY
ROOT Hips
{
	OFFSET 0.00000 0.00000 0.00000
	CHANNELS 6 Xposition Yposition Zposition Zrotation Yrotation Xrotation 
	JOINT LHipJoint
	{
		OFFSET 0 0 0
		CHANNELS 3 Zrotation Yrotation Xrotation
		JOINT LeftUpLeg
		{
			OFFSET 1.85590 -1.73949 0.84976
			CHANNELS 3 Zrotation Yrotation Xrotation
			JOINT LeftLeg
			{
				OFFSET 2.36836 -6.50702 0.00000
				CHANNELS 3 Zrotation Yrotation Xrotation
				JOINT LeftFoot
				{
					OFFSET 2.53268 -6.95849 0.00000
					CHANNELS 3 Zrotation Yrotation Xrotation
					JOINT LeftToeBase
					{
						OFFSET 0.15935 -0.43781 1.94506
						CHANNELS 3 Zrotation Yrotation Xrotation
						End Site
						{
							OFFSET 0.00000 -0.00000 1.00661
						}
					}
				}
			}
		}
	}
	JOINT RHipJoint
	{
		OFFSET 0 0 0
		CHANNELS 3 Zrotation Yrotation Xrotation
		JOINT RightUpLeg
		{
			OFFSET -1.68297 -1.73949 0.84976
			CHANNELS 3 Zrotation Yrotation Xrotation
			JOINT RightLeg
			{
				OFFSET -2.44709 -6.72334 0.00000
				CHANNELS 3 Zrotation Yrotation Xrotation
				JOINT RightFoot
				{
					OFFSET -2.43843 -6.69953 0.00000
					CHANNELS 3 Zrotation Yrotation Xrotation
					JOINT RightToeBase
					{
						OFFSET -0.20854 -0.57295 2.02172
						CHANNELS 3 Zrotation Yrotation Xrotation
						End Site
						{
							OFFSET -0.00000 -0.00000 1.05594
						}
					}
				}
			}
		}
	}
	JOINT LowerBack
	{
		OFFSET 0 0 0
		CHANNELS 3 Zrotation Yrotation Xrotation
		JOINT Spine
		{
			OFFSET -0.01560 2.23971 -0.03712
			CHANNELS 3 Zrotation Yrotation Xrotation
			JOINT Spine1
			{
				OFFSET 0.05490 2.19225 -0.19086
				CHANNELS 3 Zrotation Yrotation Xrotation
				JOINT Neck
				{
					OFFSET 0 0 0
					CHANNELS 3 Zrotation Yrotation Xrotation
					JOINT Neck1
					{
						OFFSET -0.12403 1.43168 0.27585
						CHANNELS 3 Zrotation Yrotation Xrotation
						JOINT Head
						{
							OFFSET 0.17855 1.46173 -0.32578
							CHANNELS 3 Zrotation Yrotation Xrotation
							End Site
							{
								OFFSET 0.07217 1.51590 -0.14537
							}
						}
					}
				}
				JOINT LeftShoulder
				{
					OFFSET 0 0 0
					CHANNELS 3 Zrotation Yrotation Xrotation
					JOINT LeftArm
					{
						OFFSET 3.27650 0.85634 0.05396
						CHANNELS 3 Zrotation Yrotation Xrotation
						JOINT LeftForeArm
						{
							OFFSET 4.96755 -0.00000 0.00000
							CHANNELS 3 Zrotation Yrotation Xrotation
							JOINT LeftHand
							{
								OFFSET 3.35751 -0.00000 0.00000
								CHANNELS 3 Zrotation Yrotation Xrotation
								JOINT LeftFingerBase
								{
									OFFSET 0 0 0
									CHANNELS 3 Zrotation Yrotation Xrotation
									JOINT LeftHandIndex1
									{
										OFFSET 0.79697 -0.00000 0.00000
										CHANNELS 3 Zrotation Yrotation Xrotation
										End Site
										{
											OFFSET 0.64254 -0.00000 0.00000
										}
									}
								}
								JOINT LThumb
								{
									OFFSET 0 0 0
									CHANNELS 3 Zrotation Yrotation Xrotation
									End Site
									{
										OFFSET 0.65235 -0.00000 0.65235
									}
								}
							}
						}
					}
				}
				JOINT RightShoulder
				{
					OFFSET 0 0 0
					CHANNELS 3 Zrotation Yrotation Xrotation
					JOINT RightArm
					{
						OFFSET -3.24434 1.02034 0.34688
						CHANNELS 3 Zrotation Yrotation Xrotation
						JOINT RightForeArm
						{
							OFFSET -5.21859 -0.00000 -0.00000
							CHANNELS 3 Zrotation Yrotation Xrotation
							JOINT RightHand
							{
								OFFSET -3.36504 -0.00000 0.00000
								CHANNELS 3 Zrotation Yrotation Xrotation
								JOINT RightFingerBase
								{
									OFFSET 0 0 0
									CHANNELS 3 Zrotation Yrotation Xrotation
									JOINT RightHandIndex1
									{
										OFFSET -0.62044 -0.00000 0.00000
										CHANNELS 3 Zrotation Yrotation Xrotation
										End Site
										{
											OFFSET -0.50022 -0.00000 0.00000
										}
									}
								}
								JOINT RThumb
								{
									OFFSET 0 0 0
									CHANNELS 3 Zrotation Yrotation Xrotation
									End Site
									{
										OFFSET -0.50786 -0.00000 0.50786
									}
								}
							}
						}
					}
				}
			}
		}
	}
}
MOTION
Frames: 16
Frame Time: 0.125
0.00 0.00 0.00 0 0 0 0 0 0 -21 0 0 0 0 0 0 0 0 0 0 0 0 0 0 21 0 0 0 0 0 0 0 0 0 0 0 0 0 0 0 0 0 0 0 0 0 0 -16 0 0 21 0 0 11 0 0 0 -8 0 0 0 0 0 0 0 0 0 0 0 0 0 0 0 0 0 0 0 0 8 0 0 0 0 0 0 0 0 0 0 0 0 0 0 0 0 0
0.00 0.00 0.00 -3.3516 0.4022 5.0857 0.0000 0.0000 0.0000 -13.5643 -1.7372 -39.5811 6.6421 15.0230 47.5074 0.4470 7.1381 -17.2218 0.1393 -2.4056 -6.6281 0.0000 0.0000 0.0000 30.9414 6.6694 -7.4317 -1.6734 -8.1497 23.1697 -1.1126 8.0924 -18.8769 -0.3013 3.5293 -9.7561 0.3117 1.4199 -5.0615 3.2877 1.7875 -0.1797 3.3441 0.8783 2.5574 -14.7319 -6.5713 -22.1827 13.5881 -7.6494 20.0764 6.2291 -3.0238 11.3321 -0.0000 0.0000 0.0000 -84.3490 16.6013 32.2081 15.5708 -24.9352 -3.4630 -0.0000 0.0000 -8.1191 12.9022 -21.7034 -4.8420 -7.1250 0.0000 -0.0000 -10.0067 8.0428 8.6446 -0.0000 0.0000 0.0000 73.8948 0.1712 46.3449 -22.6560 33.7105 -6.9464 0.0000 -0.0000 -19.3726 -32.9669 -22.5672 13.9773 7.1250 -0.0000 -0.0000 -4.4296 -56.2765 1.2267
0.00 0.00 0.00 -3.9070 -0.7167 5.5547 0.0000 0.0000 0.0000 -12.7595 -4.8435 -40.3517 2.8532 10.4535 30.4582 0.4562 4.3573 -15.1056 0.4473 -4.2908 -11.8961 0.0000 0.0000 0.0000 31.6156 4.4720 -2.3604 -1.0343 -6.4687 18.1507 -0.8335 8.8417 -16.5035 -0.0686 1.6898 -4.6490 0.7638 1.9508 -5.3093 3.2689 2.4592 -0.0607 3.1310 1.2165 2.8020 -15.0338 -6.6101 -21.6658 13.8923 -7.6710 19.2312 6.3628 -3.0380 10.9550 -0.0000 -0.0000 0.0000 -85.6130 15.9948 28.6435 14.2282 -23.0600 -2.9169 -0.0000 0.0000 -5.1162 13.0852 -20.2022 -4.5891 -7.1250 0.0000 -0.0000 -9.8472 9.5258 8.2072 -0.0000 -0.0000 0.0000 74.0702 2.0005 45.6807 -25.1794 36.3868 -8.3961 0.0000 -0.0000 -20.6183 -36.1344 -25.1957 17.2666 7.1250 -0.0000 -0.0000 -7.7809 -60.0338 2.8647
0.00 0.00 0.00 -5.6551 -3.1409 6.6976 0.0000 0.0000 0.0000 -3.5795 -17.0040 -37.2373 0.8369 5.8358 16.3088 0.2497 14.5039 -23.1145 0.2607 -3.2849 -9.0731 0.0000 0.0000 0.0000 32.3121 0.0912 9.5317 -0.0229 -0.9780 2.6882 -0.2949 7.5626 -10.2996 -0.2063 2.9242 -8.0678 2.2990 2.7121 -6.7197 3.4391 3.3076 -0.0940 2.5911 1.6558 3.5954 -15.1714 -6.5188 -21.5265 14.2753 -7.6035 19.1209 6.5443 -2.9802 10.9027 0.0000 -0.0000 0.0000 -86.7924 16.5306 31.1735 14.2697 -23.1190 -2.9332 -0.0000 0.0000 -5.2539 11.3593 -21.4157 -4.1953 -7.1250 0.0000 -0.0000 -10.9719 8.4964 9.4093 0.0000 -0.0000 0.0000 75.0524 1.3993 46.1295 -27.8379 38.9665 -10.0216 0.0000 -0.0000 -22.2046 -32.0882 -17.9058 10.9114 7.1250 -0.0000 -0.0000 -4.1065 -50.8099 0.5887
0.00 0.00 0.00 -6.4466 -7.4860 7.8928 0.0000 0.0000 0.0000 -9.5222 -5.4156 -41.1654 1.8285 8.4993 24.2414 -0.2758 10.7505 -9.7698 0.3319 -3.7023 -10.2405 0.0000 0.0000 0.0000 29.2197 -1.3338 18.6116 0.0000 0.0000 -0.0000 0.0914 7.9918 -3.4099 -0.3527 3.8158 -10.5590 2.4380 3.1621 -7.7719 3.4239 3.8653 -0.6634 2.5958 1.9329 3.5887 -13.7721 -5.6944 -21.6760 13.7916 -6.7908 19.4072 6.2656 -2.5529 10.8173 -0.0000 0.0000 0.0000 -88.2786 17.2882 35.5410 14.2324 -23.0659 -2.9185 -0.0000 0.0000 -4.5178 12.9520 -24.7689 -5.5037 -7.1250 0.0000 -0.0000 -10.1006 4.9761 9.3357 -0.0000 0.0000 0.0000 77.0123 -3.4992 49.2051 -26.9928 38.1723 -9.4947 0.0000 -0.0000 -22.5480 -34.1643 -25.1382 16.0827 7.1250 -0.0000 -0.0000 -5.3670 -59.4579 1.8984
0.00 0.00 0.00 -3.3168 -7.5167 7.2966 0.0000 0.0000 0.0000 -16.3348 -2.2211 -39.3730 3.2401 11.0740 32.5299 -0.0431 5.5198 -6.3900 0.0030 -0.3565 -0.9795 0.0000 0.0000 0.0000 22.3757 -3.1120 14.8382 -0.7748 -5.6203 15.6866 -0.0967 4.1519 8.8430 -0.9774 6.2935 -17.6384 0.0613 2.2631 -7.5918 2.2566 2.9348 -1.3881 2.5813 1.4553 2.7007 -12.9466 -5.5224 -21.8885 13.9877 -6.9238 20.0371 6.2037 -2.5197 11.0881 0.0000 -0.0000 0.0000 -87.3891 14.4355 36.1857 12.2758 -20.2170 -2.1967 -0.0000 0.0000 -0.0487 19.1159 -29.3646 -9.6456 -7.1250 0.0000 -0.0000 -6.7991 -0.6025 6.9190 0.0000 -0.0000 0.0000 80.2512 -8.3740 43.8948 -20.2188 30.9051 -5.6433 0.0000 -0.0000 -17.0692 -31.6663 -21.9512 12.9838 7.1250 -0.0000 -0.0000 -3.0863 -55.2924 0.7804
0.00 0.00 0.00 0.1745 -8.7732 6.5232 0.0000 0.0000 0.0000 -21.3521 -1.4153 -34.7755 2.8573 10.4604 30.4810 0.0513 5.1672 -8.8315 0.0140 0.7638 2.0990 0.0000 0.0000 0.0000 17.0225 -2.5906 6.8105 -3.1881 -10.9936 32.2582 -0.3843 2.6231 12.9687 -0.4630 4.3647 -12.1050 -2.9643 2.1071 -6.9488 1.4657 2.9779 -1.6087 3.4266 1.4734 1.9997 -13.4917 -5.3673 -21.4043 13.9363 -6.5725 20.1130 6.3406 -2.4271 10.9838 -0.0000 -0.0000 0.0000 -87.0042 12.3711 36.7055 11.9883 -19.7870 -2.0983 -0.0000 -0.0000 0.4045 9.8974 -23.6006 -3.9959 -7.1250 0.0000 -0.0000 -11.9303 6.4887 10.7471 -0.0000 -0.0000 0.0000 80.6114 -9.6710 41.6253 -18.0196 28.1823 -4.5585 0.0000 -0.0000 -15.4935 -32.6839 -22.9910 14.0684 7.1250 -0.0000 -0.0000 -4.0350 -56.6874 1.1573
0.00 0.00 0.00 1.5828 -9.4223 5.5613 0.0000 0.0000 0.0000 -24.4311 1.2164 -29.5774 2.4774 9.7967 28.3210 0.2524 3.4252 -11.3863 0.0064 0.5169 1.4205 0.0000 0.0000 0.0000 15.2356 -0.3909 -2.3398 -7.4365 -15.6887 50.5065 -0.6450 -4.9250 14.3036 -0.3633 3.8719 -10.7166 -4.0385 1.6704 -6.2462 1.3727 2.4517 -1.3931 3.8711 1.2073 1.8309 -13.0429 -4.8693 -21.8245 13.2564 -5.8676 20.9745 6.1552 -2.1364 11.2231 0.0000 0.0000 0.0000 -85.8631 8.5605 36.3849 12.0781 -19.9217 -2.1288 -0.0000 -0.0000 2.0100 1.1091 -18.3753 -0.3497 -7.1250 0.0000 -0.0000 -17.5150 12.2064 14.1072 0.0000 0.0000 0.0000 80.1015 -11.1594 41.0016 -17.2522 27.1890 -4.2019 0.0000 -0.0000 -14.0908 -32.1110 -21.8183 13.1292 7.1250 -0.0000 -0.0000 -3.6001 -55.2415 0.9061
0.00 0.00 0.00 2.5074 -6.2727 4.9012 0.0000 0.0000 0.0000 -26.8050 1.0387 -22.0636 1.7551 8.3362 23.7401 0.3308 2.7554 -12.2328 0.0005 0.1486 0.4083 0.0000 0.0000 0.0000 14.9295 -0.5248 -13.9838 -11.4058 -18.1280 64.0927 0.2632 -9.1396 -2.0051 -0.1972 2.8597 -7.8885 -4.9330 -0.3309 -4.8497 1.8225 -0.2358 -1.6462 4.6453 -0.1109 1.0480 -12.5838 -3.9380 -21.2129 12.6861 -4.6772 21.5833 6.0717 -1.6465 11.1103 0.0000 -0.0000 0.0000 -84.0199 2.3866 37.3763 11.5053 -19.0586 -1.9377 -0.0000 -0.0000 1.9701 3.4118 -19.2002 -1.1232 -7.1250 0.0000 -0.0000 -16.0192 11.2992 13.1061 0.0000 -0.0000 0.0000 78.3819 -12.9900 42.3254 -18.3227 28.5684 -4.7025 0.0000 -0.0000 -14.2532 -29.7254 -22.7621 12.4574 7.1250 -0.0000 -0.0000 -0.7809 -55.7661 0.2063
0.00 0.00 0.00 3.0467 -2.7532 3.7891 0.0000 0.0000 0.0000 -28.2948 0.9278 -14.6557 1.6810 8.1674 23.2236 0.7394 1.1117 -16.6835 0.0223 -0.9650 -2.6525 0.0000 0.0000 0.0000 15.7685 2.7485 -25.2371 -10.6887 -17.7794 61.7665 -0.7069 -5.0928 -18.5400 -0.5955 4.9404 -13.7387 -5.9296 -1.8895 -4.0802 2.6685 -2.3155 -0.9850 5.9782 -1.1902 1.6167 -12.7880 -3.8418 -21.0471 11.6046 -4.2651 22.4264 5.7888 -1.6182 11.3056 0.0000 0.0000 0.0000 -83.7776 -8.3293 31.9346 10.3513 -17.2872 -1.5777 -0.0000 -0.0000 9.9726 6.9950 -21.1824 -2.5385 -7.1250 0.0000 -0.0000 -13.7147 9.1305 11.7145 0.0000 0.0000 0.0000 76.7730 -14.9416 41.0875 -19.7922 30.3912 -5.4258 0.0000 -0.0000 -17.9877 -31.1323 -19.4364 11.3645 7.1250 -0.0000 -0.0000 -2.9243 -52.3601 0.5302
0.00 0.00 0.00 4.3777 0.4398 3.9928 0.0000 0.0000 0.0000 -30.1462 0.8659 -6.9547 1.1485 6.8050 19.1388 1.0096 0.1043 -19.0364 0.0043 0.4244 1.1662 0.0000 0.0000 0.0000 13.7296 7.4273 -32.1418 -6.4299 -14.8324 46.6837 -1.1420 -3.7811 -21.8767 -1.4482 7.6073 -21.5275 -6.2486 -3.1864 -5.6115 1.7602 -3.8986 0.0619 4.9821 -2.0741 3.7565 -12.2816 -3.6985 -21.5037 12.3815 -4.3698 22.1396 5.9783 -1.5125 11.3099 -0.0000 0.0000 0.0000 -81.3793 -15.3344 35.6830 12.5643 -20.6455 -2.2974 -0.0000 0.0000 -0.0427 13.4231 -22.5349 -5.2260 -7.1250 0.0000 -0.0000 -9.7097 7.1502 8.5525 -0.0000 0.0000 0.0000 78.1773 -15.1424 40.6374 -19.5275 30.0688 -5.2925 0.0000 -0.0000 -19.0079 -31.1723 -20.8588 12.1561 7.1250 -0.0000 -0.0000 -2.7419 -53.9644 0.6046
0.00 0.00 0.00 5.4811 2.7335 5.3390 0.0000 0.0000 0.0000 -30.8219 5.0574 4.8507 0.0233 0.9860 2.7104 0.5425 0.3706 -14.0542 0.0219 -0.9560 -2.6278 0.0000 0.0000 0.0000 8.5902 16.0022 -34.3793 -2.9077 -10.5440 30.7571 -1.3362 -1.1413 -22.2868 -0.7966 5.6969 -15.9076 -7.2630 -3.7405 -7.2537 1.7511 -4.4499 -0.0931 5.3931 -2.3916 4.6729 -12.5859 -4.0728 -21.3142 12.0581 -4.7367 22.2047 5.8467 -1.7496 11.3523 -0.0000 -0.0000 0.0000 -80.9463 -15.5324 46.2927 18.3766 -28.6367 -4.7283 -0.0000 0.0000 -7.4356 14.6669 -21.7147 -5.5310 -7.1250 0.0000 -0.0000 -8.8937 7.8247 7.6958 -0.0000 -0.0000 0.0000 78.0216 -17.7596 40.6859 -20.2168 30.9027 -5.6423 0.0000 -0.0000 -18.8033 -28.7821 -26.9661 13.9882 7.1250 -0.0000 -0.0000 1.5797 -60.1078 -0.5824
0.00 0.00 0.00 4.1165 8.3059 4.8904 0.0000 0.0000 0.0000 -19.1835 15.5273 21.7627 0.0000 0.0000 0.0000 0.0004 -0.0067 0.3894 0.9533 -6.2177 -17.4173 0.0000 0.0000 0.0000 13.5237 9.9144 -35.2414 -4.0461 -12.2215 36.5200 -0.2455 -2.1934 -10.4298 -0.4570 4.3366 -12.0256 -7.0904 -4.4194 -8.2830 1.8672 -5.2991 -0.0979 5.2301 -2.8293 5.3715 -12.4940 -4.8296 -19.7738 12.9196 -6.0768 20.1557 5.8543 -2.2910 10.5333 0.0000 -0.0000 0.0000 -88.2410 -3.3690 48.3388 17.1605 -27.0689 -4.1601 -0.0000 0.0000 -0.7603 16.1599 -26.7167 -7.4223 -7.1250 0.0000 -0.0000 -8.2863 2.5745 7.9909 0.0000 -0.0000 0.0000 80.5592 -17.7233 37.4065 -16.4313 26.1019 -3.8337 0.0000 -0.0000 -14.8783 -31.0125 -25.2658 14.3908 7.1250 -0.0000 -0.0000 -1.5905 -58.8137 0.5372
0.00 0.00 0.00 2.3204 8.7096 4.4196 0.0000 0.0000 0.0000 -16.6568 14.7247 16.2108 0.4579 4.3407 12.0372 0.0047 0.8931 1.2829 0.9884 -6.3278 -17.7386 0.0000 0.0000 0.0000 16.6439 9.3228 -32.7437 -3.9376 -12.0769 36.0047 -0.3070 -1.3871 -11.0645 -0.2416 3.1630 -8.7328 -5.6102 -4.3352 -8.0685 2.2854 -5.3633 -0.1744 4.8500 -2.8206 5.0803 -12.8115 -4.8948 -19.2057 13.0861 -6.1672 20.0118 5.9525 -2.3581 10.4045 0.0000 -0.0000 0.0000 -88.9470 -1.9993 46.1201 14.9476 -24.0730 -3.2045 -0.0000 -0.0000 0.7128 16.2520 -25.7210 -7.2104 -7.1250 0.0000 -0.0000 -8.1529 3.5652 7.7100 0.0000 -0.0000 0.0000 80.5656 -16.6010 36.5727 -15.9650 25.4731 -3.6309 0.0000 -0.0000 -13.3025 -28.8393 -23.8634 12.5586 7.1250 -0.0000 -0.0000 0.4858 -56.7732 -0.1402
0.00 0.00 0.00 -1.0944 9.9860 4.1452 0.0000 0.0000 0.0000 -11.9734 12.7676 6.0043 3.1148 10.8786 31.8715 0.0194 4.3534 3.7428 0.0119 -0.7046 -1.9362 0.0000 0.0000 0.0000 22.0897 7.6062 -28.4266 -3.3057 -11.1742 32.8698 -0.4303 -0.3960 -12.5412 -0.1730 2.6795 -7.3876 -2.8792 -4.3131 -7.9262 3.1830 -5.6321 -0.2717 4.2388 -2.8938 4.7577 -13.0940 -5.3036 -19.0964 13.4914 -6.7443 19.6766 6.0517 -2.6049 10.3803 -0.0000 0.0000 0.0000 -89.3656 -0.3520 41.7526 12.3441 -20.3187 -2.2203 -0.0000 -0.0000 3.1623 10.0241 -21.6082 -3.7243 -7.1250 0.0000 -0.0000 -11.8156 8.4405 10.1779 -0.0000 0.0000 0.0000 79.9289 -15.9440 37.8208 -17.1771 27.0907 -4.1677 0.0000 -0.0000 -14.2898 -34.9912 -24.7683 16.3441 7.1250 -0.0000 -0.0000 -6.4367 -59.2526 2.2469
0.00 0.00 0.00 -1.5591 9.1020 5.3585 0.0000 0.0000 0.0000 -12.1424 6.2657 -3.4352 7.3905 15.6521 50.3362 0.3715 1.4216 11.1053 0.4110 -4.1156 -11.4020 0.0000 0.0000 0.0000 23.7355 12.4332 -26.3812 -3.6187 -11.6349 34.4524 -0.5653 -0.0362 -14.2211 -0.4361 4.2377 -11.7465 -2.8131 -2.7355 -5.8357 3.3705 -3.5550 -1.2477 4.7849 -1.8059 2.3676 -13.8284 -5.9380 -21.6464 13.5950 -7.2247 20.8857 6.1877 -2.7803 11.4219 0.0000 0.0000 0.0000 -87.8035 9.7358 40.2560 10.2478 -17.1263 -1.5471 -0.0000 -0.0000 5.6952 3.0674 -17.3452 -0.9153 -7.1250 0.0000 -0.0000 -16.3284 13.1002 12.7424 0.0000 0.0000 0.0000 80.4532 -15.2769 33.0023 -16.6297 26.3670 -3.9215 0.0000 -0.0000 -13.4440 -32.2865 -25.2348 15.0761 7.1250 -0.0000 -0.0000 -3.0962 -59.0929 1.0668
